<svg xmlns="http://www.w3.org/2000/svg" xmlns:xlink="http://www.w3.org/1999/xlink" width="500" zoomAndPan="magnify" viewBox="0 0 375 374.999991" height="500" preserveAspectRatio="xMidYMid meet" version="1.0"><defs><clipPath id="2dc0e9b9d5"><path d="M 88 37.5 L 287 37.5 L 287 325 L 88 325 Z M 88 37.5 " clip-rule="nonzero"/></clipPath><clipPath id="14a455b86b"><path d="M 187 37.5 L 287 37.5 L 287 325 L 187 325 Z M 187 37.5 " clip-rule="nonzero"/></clipPath></defs><rect x="-37.5" width="450" fill="#ffffff" y="-37.499999" height="449.999989" fill-opacity="1"/><rect x="-37.5" width="450" fill="#ffffff" y="-37.499999" height="449.999989" fill-opacity="1"/><path fill="#ffffff" d="M 252.285156 315.796875 L 256.484375 243.601562 L 263.457031 124.621094 L 267.574219 81.773438 L 107.632812 81.773438 L 111.75 124.621094 L 118.722656 243.601562 L 122.921875 315.796875 Z M 252.285156 315.796875 " fill-opacity="1" fill-rule="nonzero"/><path fill="#8e5025" d="M 112 132.503906 L 118.46875 242.679688 L 256.738281 242.679688 L 263.203125 132.503906 Z M 112 132.503906 " fill-opacity="1" fill-rule="nonzero"/><path fill="#232322" d="M 120.316406 46.21875 C 119.898438 46.21875 119.644531 46.554688 119.644531 46.890625 L 119.644531 56.28125 L 255.558594 56.28125 L 255.558594 46.976562 C 255.558594 46.554688 255.222656 46.304688 254.886719 46.304688 L 120.316406 46.304688 Z M 120.316406 46.21875 " fill-opacity="1" fill-rule="nonzero"/><g clip-path="url(#2dc0e9b9d5)"><path fill="#000000" d="M 286.304688 71.878906 L 280.59375 60.222656 C 279.417969 57.875 276.980469 56.367188 274.378906 56.367188 L 264.296875 56.367188 L 264.296875 46.976562 C 264.296875 41.777344 260.011719 37.5 254.804688 37.5 L 120.316406 37.5 C 115.109375 37.5 110.824219 41.777344 110.824219 46.976562 L 110.824219 56.367188 L 100.746094 56.367188 C 98.140625 56.367188 95.703125 57.875 94.527344 60.222656 L 88.898438 71.878906 C 87.890625 74.058594 87.976562 76.492188 89.238281 78.503906 C 90.496094 80.515625 92.679688 81.773438 95.117188 81.773438 L 98.8125 81.773438 L 114.101562 316.554688 C 114.351562 321.082031 118.132812 324.601562 122.585938 324.601562 L 252.367188 324.601562 C 256.90625 324.601562 260.601562 321.082031 260.851562 316.554688 L 276.140625 81.773438 L 279.835938 81.773438 C 282.273438 81.773438 284.457031 80.597656 285.71875 78.503906 C 287.144531 76.574219 287.3125 74.058594 286.304688 71.878906 Z M 119.644531 46.976562 C 119.644531 46.554688 119.980469 46.304688 120.316406 46.304688 L 254.804688 46.304688 C 255.222656 46.304688 255.476562 46.640625 255.476562 46.976562 L 255.476562 56.367188 L 119.644531 56.367188 Z M 252.285156 315.796875 L 122.921875 315.796875 L 119.140625 251.402344 L 256.066406 251.402344 Z M 118.636719 242.679688 L 112.253906 132.503906 L 263.035156 132.503906 L 256.652344 242.679688 Z M 263.539062 123.78125 L 111.664062 123.78125 L 107.550781 81.855469 L 267.574219 81.855469 Z M 98.140625 73.050781 L 102.003906 65.085938 L 273.199219 65.085938 L 277.066406 73.050781 Z M 98.140625 73.050781 " fill-opacity="1" fill-rule="nonzero"/></g><path fill="#232322" d="M 102.003906 65.085938 L 98.140625 73.050781 L 277.066406 73.050781 L 273.199219 65.085938 Z M 102.003906 65.085938 " fill-opacity="1" fill-rule="nonzero"/><g clip-path="url(#14a455b86b)"><path fill="#020202" d="M 285.886719 78.585938 C 284.625 80.597656 282.441406 81.855469 280.003906 81.855469 L 276.308594 81.855469 L 261.019531 316.636719 C 260.769531 321.164062 256.988281 324.6875 252.535156 324.6875 L 187.601562 324.6875 L 187.601562 37.5 L 254.886719 37.5 C 260.097656 37.5 264.378906 41.777344 264.378906 46.976562 L 264.378906 56.367188 L 274.460938 56.367188 C 277.066406 56.367188 279.5 57.875 280.675781 60.222656 L 286.390625 71.878906 C 287.3125 74.058594 287.144531 76.574219 285.886719 78.585938 Z M 285.886719 78.585938 " fill-opacity="0.15" fill-rule="nonzero"/></g></svg>