<svg xmlns="http://www.w3.org/2000/svg" xmlns:xlink="http://www.w3.org/1999/xlink" width="500" zoomAndPan="magnify" viewBox="0 0 375 374.999991" height="500" preserveAspectRatio="xMidYMid meet" version="1.0"><defs><clipPath id="888426bcd2"><path d="M 97 37.5 L 277.699219 37.5 L 277.699219 325 L 97 325 Z M 97 37.5 " clip-rule="nonzero"/></clipPath><clipPath id="e53bdfd240"><path d="M 187 37.5 L 277.699219 37.5 L 277.699219 326 L 187 326 Z M 187 37.5 " clip-rule="nonzero"/></clipPath></defs><rect x="-37.5" width="450" fill="#ffffff" y="-37.499999" height="449.999989" fill-opacity="1"/><rect x="-37.5" width="450" fill="#ffffff" y="-37.499999" height="449.999989" fill-opacity="1"/><path fill="#ffffff" d="M 245.960938 317.023438 L 249.703125 251.324219 L 256.050781 143.234375 L 259.796875 77.941406 L 114.773438 77.941406 L 118.515625 143.234375 L 124.863281 251.324219 L 128.6875 317.023438 Z M 245.960938 317.023438 " fill-opacity="1" fill-rule="nonzero"/><path fill="#8e5025" d="M 118.761719 147.390625 L 124.621094 247.574219 L 249.949219 247.574219 L 255.808594 147.390625 Z M 118.761719 147.390625 " fill-opacity="1" fill-rule="nonzero"/><path fill="#232322" d="M 126.328125 45.664062 C 126.003906 45.664062 125.679688 45.90625 125.679688 46.3125 L 125.679688 54.792969 L 248.890625 54.792969 L 248.890625 46.234375 C 248.890625 45.90625 248.648438 45.582031 248.238281 45.582031 L 126.328125 45.582031 Z M 126.328125 45.664062 " fill-opacity="1" fill-rule="nonzero"/><g clip-path="url(#888426bcd2)"><path fill="#000000" d="M 276.722656 68.976562 L 271.597656 58.378906 C 270.539062 56.257812 268.339844 54.875 265.980469 54.875 L 256.867188 54.875 L 256.867188 46.234375 C 256.867188 41.503906 253.042969 37.671875 248.320312 37.671875 L 126.328125 37.671875 C 121.609375 37.671875 117.785156 41.503906 117.785156 46.234375 L 117.785156 54.792969 L 108.667969 54.792969 C 106.308594 54.792969 104.113281 56.175781 103.054688 58.296875 L 97.925781 68.894531 C 96.949219 70.851562 97.113281 73.132812 98.253906 74.925781 C 99.390625 76.800781 101.34375 77.859375 103.542969 77.859375 L 106.878906 77.859375 L 107.367188 86.828125 L 116.96875 251.730469 L 120.796875 317.675781 C 121.039062 321.75 124.457031 324.929688 128.527344 324.929688 L 246.207031 324.929688 C 250.273438 324.929688 253.691406 321.75 253.9375 317.675781 L 257.761719 251.730469 L 264.027344 143.5625 L 267.851562 77.859375 L 271.191406 77.859375 C 273.386719 77.859375 275.339844 76.800781 276.480469 74.925781 C 277.539062 73.214844 277.699219 70.929688 276.722656 68.976562 Z M 125.679688 46.234375 C 125.679688 45.90625 126.003906 45.582031 126.328125 45.582031 L 248.238281 45.582031 C 248.566406 45.582031 248.890625 45.824219 248.890625 46.234375 L 248.890625 54.792969 L 125.679688 54.792969 Z M 245.960938 317.023438 L 128.6875 317.023438 L 125.109375 255.5625 L 249.542969 255.5625 Z M 249.949219 247.574219 L 124.621094 247.574219 L 118.761719 147.390625 L 255.726562 147.390625 Z M 256.214844 139.484375 L 118.355469 139.484375 L 114.773438 78.023438 L 259.796875 78.023438 Z M 106.144531 70.035156 L 109.644531 62.78125 L 264.839844 62.78125 L 268.339844 70.035156 Z M 106.144531 70.035156 " fill-opacity="1" fill-rule="nonzero"/></g><path fill="#232322" d="M 109.644531 62.78125 L 106.144531 70.035156 L 268.421875 70.035156 L 264.921875 62.78125 Z M 109.644531 62.78125 " fill-opacity="1" fill-rule="nonzero"/><g clip-path="url(#e53bdfd240)"><path fill="#020202" d="M 276.398438 75.007812 C 275.257812 76.882812 273.304688 77.941406 271.109375 77.941406 L 267.769531 77.941406 L 263.945312 143.640625 L 257.679688 251.8125 L 253.855469 317.757812 C 253.609375 321.832031 250.191406 325.011719 246.125 325.011719 L 187.285156 325.011719 L 187.285156 37.671875 L 248.238281 37.671875 C 252.960938 37.671875 256.785156 41.503906 256.785156 46.234375 L 256.785156 54.792969 L 265.898438 54.792969 C 268.257812 54.792969 270.457031 56.175781 271.515625 58.296875 L 276.640625 68.894531 C 277.699219 70.929688 277.539062 73.214844 276.398438 75.007812 Z M 276.398438 75.007812 " fill-opacity="0.15" fill-rule="nonzero"/></g></svg>