<svg xmlns="http://www.w3.org/2000/svg" xmlns:xlink="http://www.w3.org/1999/xlink" width="500" zoomAndPan="magnify" viewBox="0 0 375 374.999991" height="500" preserveAspectRatio="xMidYMid meet" version="1.0"><defs><clipPath id="ddbf25cd67"><path d="M 37.5 37.5 L 337.5 37.5 L 337.5 337.5 L 37.5 337.5 Z M 37.5 37.5 " clip-rule="nonzero"/></clipPath></defs><rect x="-37.5" width="450" fill="#ffffff" y="-37.499999" height="449.999989" fill-opacity="1"/><rect x="-37.5" width="450" fill="#ffffff" y="-37.499999" height="449.999989" fill-opacity="1"/><path fill="#f0e3ce" d="M 334.976562 187.5 C 334.976562 189.914062 334.917969 192.324219 334.796875 194.734375 C 334.679688 197.148438 334.503906 199.554688 334.265625 201.957031 C 334.027344 204.355469 333.734375 206.75 333.378906 209.140625 C 333.023438 211.527344 332.613281 213.902344 332.140625 216.269531 C 331.671875 218.636719 331.140625 220.992188 330.554688 223.332031 C 329.96875 225.675781 329.324219 228 328.625 230.308594 C 327.925781 232.621094 327.167969 234.910156 326.355469 237.183594 C 325.542969 239.457031 324.671875 241.707031 323.75 243.9375 C 322.824219 246.167969 321.847656 248.371094 320.816406 250.554688 C 319.785156 252.734375 318.699219 254.890625 317.5625 257.019531 C 316.425781 259.148438 315.234375 261.246094 313.992188 263.316406 C 312.753906 265.386719 311.460938 267.425781 310.121094 269.433594 C 308.78125 271.441406 307.390625 273.414062 305.953125 275.351562 C 304.515625 277.289062 303.03125 279.191406 301.5 281.058594 C 299.96875 282.921875 298.394531 284.75 296.773438 286.539062 C 295.152344 288.328125 293.488281 290.074219 291.78125 291.78125 C 290.074219 293.488281 288.328125 295.152344 286.539062 296.773438 C 284.75 298.394531 282.921875 299.96875 281.058594 301.5 C 279.191406 303.03125 277.289062 304.515625 275.351562 305.953125 C 273.414062 307.390625 271.441406 308.78125 269.433594 310.121094 C 267.425781 311.460938 265.386719 312.753906 263.316406 313.992188 C 261.246094 315.234375 259.148438 316.425781 257.019531 317.5625 C 254.890625 318.699219 252.734375 319.785156 250.554688 320.816406 C 248.371094 321.847656 246.167969 322.824219 243.9375 323.75 C 241.707031 324.671875 239.457031 325.542969 237.183594 326.355469 C 234.910156 327.167969 232.621094 327.925781 230.308594 328.625 C 228 329.324219 225.675781 329.96875 223.332031 330.554688 C 220.992188 331.140625 218.636719 331.671875 216.269531 332.140625 C 213.902344 332.613281 211.527344 333.023438 209.140625 333.378906 C 206.75 333.734375 204.355469 334.027344 201.957031 334.265625 C 199.554688 334.503906 197.148438 334.679688 194.734375 334.796875 C 192.324219 334.917969 189.914062 334.976562 187.5 334.976562 C 185.085938 334.976562 182.675781 334.917969 180.265625 334.796875 C 177.851562 334.679688 175.445312 334.503906 173.042969 334.265625 C 170.644531 334.027344 168.25 333.734375 165.859375 333.378906 C 163.472656 333.023438 161.097656 332.613281 158.730469 332.140625 C 156.363281 331.671875 154.007812 331.140625 151.667969 330.554688 C 149.324219 329.96875 147 329.324219 144.691406 328.625 C 142.378906 327.925781 140.089844 327.167969 137.816406 326.355469 C 135.542969 325.542969 133.292969 324.671875 131.0625 323.75 C 128.832031 322.824219 126.628906 321.847656 124.445312 320.816406 C 122.265625 319.785156 120.109375 318.699219 117.980469 317.5625 C 115.851562 316.425781 113.753906 315.234375 111.683594 313.992188 C 109.613281 312.753906 107.574219 311.460938 105.566406 310.121094 C 103.558594 308.78125 101.585938 307.390625 99.648438 305.953125 C 97.710938 304.515625 95.808594 303.03125 93.941406 301.5 C 92.078125 299.96875 90.25 298.394531 88.460938 296.773438 C 86.671875 295.152344 84.925781 293.488281 83.21875 291.78125 C 81.511719 290.074219 79.847656 288.328125 78.226562 286.539062 C 76.605469 284.75 75.03125 282.921875 73.5 281.058594 C 71.96875 279.191406 70.484375 277.289062 69.046875 275.351562 C 67.609375 273.414062 66.21875 271.441406 64.878906 269.433594 C 63.539062 267.425781 62.246094 265.386719 61.007812 263.316406 C 59.765625 261.246094 58.574219 259.148438 57.4375 257.019531 C 56.300781 254.890625 55.214844 252.734375 54.183594 250.554688 C 53.152344 248.371094 52.175781 246.167969 51.25 243.9375 C 50.328125 241.707031 49.457031 239.457031 48.644531 237.183594 C 47.832031 234.910156 47.074219 232.621094 46.375 230.308594 C 45.675781 228 45.03125 225.675781 44.445312 223.332031 C 43.859375 220.992188 43.328125 218.636719 42.859375 216.269531 C 42.386719 213.902344 41.976562 211.527344 41.621094 209.140625 C 41.265625 206.75 40.972656 204.355469 40.734375 201.957031 C 40.496094 199.554688 40.320312 197.148438 40.203125 194.734375 C 40.082031 192.324219 40.023438 189.914062 40.023438 187.5 C 40.023438 185.085938 40.082031 182.675781 40.203125 180.265625 C 40.320312 177.851562 40.496094 175.445312 40.734375 173.042969 C 40.972656 170.644531 41.265625 168.25 41.621094 165.859375 C 41.976562 163.472656 42.386719 161.097656 42.859375 158.730469 C 43.328125 156.363281 43.859375 154.007812 44.445312 151.667969 C 45.03125 149.324219 45.675781 147 46.375 144.691406 C 47.074219 142.378906 47.832031 140.089844 48.644531 137.816406 C 49.457031 135.542969 50.328125 133.292969 51.25 131.0625 C 52.175781 128.832031 53.152344 126.628906 54.183594 124.445312 C 55.214844 122.265625 56.300781 120.109375 57.4375 117.980469 C 58.574219 115.851562 59.765625 113.753906 61.007812 111.683594 C 62.246094 109.613281 63.539062 107.574219 64.878906 105.566406 C 66.21875 103.558594 67.609375 101.585938 69.046875 99.648438 C 70.484375 97.710938 71.96875 95.808594 73.5 93.941406 C 75.03125 92.078125 76.605469 90.25 78.226562 88.460938 C 79.847656 86.671875 81.511719 84.925781 83.21875 83.21875 C 84.925781 81.511719 86.671875 79.847656 88.460938 78.226562 C 90.25 76.605469 92.078125 75.03125 93.941406 73.5 C 95.808594 71.96875 97.710938 70.484375 99.648438 69.046875 C 101.585938 67.609375 103.558594 66.21875 105.566406 64.878906 C 107.574219 63.539062 109.613281 62.246094 111.683594 61.007812 C 113.753906 59.765625 115.851562 58.574219 117.980469 57.4375 C 120.109375 56.300781 122.265625 55.214844 124.445312 54.183594 C 126.628906 53.152344 128.832031 52.175781 131.0625 51.25 C 133.292969 50.328125 135.542969 49.457031 137.816406 48.644531 C 140.089844 47.832031 142.378906 47.074219 144.691406 46.375 C 147 45.675781 149.324219 45.03125 151.667969 44.445312 C 154.007812 43.859375 156.363281 43.328125 158.730469 42.859375 C 161.097656 42.386719 163.472656 41.976562 165.859375 41.621094 C 168.25 41.265625 170.644531 40.972656 173.042969 40.734375 C 175.445312 40.496094 177.851562 40.320312 180.265625 40.203125 C 182.675781 40.082031 185.085938 40.023438 187.5 40.023438 C 189.914062 40.023438 192.324219 40.082031 194.734375 40.203125 C 197.148438 40.320312 199.554688 40.496094 201.957031 40.734375 C 204.355469 40.972656 206.75 41.265625 209.140625 41.621094 C 211.527344 41.976562 213.902344 42.386719 216.269531 42.859375 C 218.636719 43.328125 220.992188 43.859375 223.332031 44.445312 C 225.675781 45.03125 228 45.675781 230.308594 46.375 C 232.621094 47.074219 234.910156 47.832031 237.183594 48.644531 C 239.457031 49.457031 241.707031 50.328125 243.9375 51.25 C 246.167969 52.175781 248.371094 53.152344 250.554688 54.183594 C 252.734375 55.214844 254.890625 56.300781 257.019531 57.4375 C 259.148438 58.574219 261.246094 59.765625 263.316406 61.007812 C 265.386719 62.246094 267.425781 63.539062 269.433594 64.878906 C 271.441406 66.21875 273.414062 67.609375 275.351562 69.046875 C 277.289062 70.484375 279.191406 71.96875 281.058594 73.5 C 282.921875 75.03125 284.75 76.605469 286.539062 78.226562 C 288.328125 79.847656 290.074219 81.511719 291.78125 83.21875 C 293.488281 84.925781 295.152344 86.671875 296.773438 88.460938 C 298.394531 90.25 299.96875 92.078125 301.5 93.941406 C 303.03125 95.808594 304.515625 97.710938 305.953125 99.648438 C 307.390625 101.585938 308.78125 103.558594 310.121094 105.566406 C 311.460938 107.574219 312.753906 109.613281 313.992188 111.683594 C 315.234375 113.753906 316.425781 115.851562 317.5625 117.980469 C 318.699219 120.109375 319.785156 122.265625 320.816406 124.445312 C 321.847656 126.628906 322.824219 128.832031 323.75 131.0625 C 324.671875 133.292969 325.542969 135.542969 326.355469 137.816406 C 327.167969 140.089844 327.925781 142.378906 328.625 144.691406 C 329.324219 147 329.96875 149.324219 330.554688 151.667969 C 331.140625 154.007812 331.671875 156.363281 332.140625 158.730469 C 332.613281 161.097656 333.023438 163.472656 333.378906 165.859375 C 333.734375 168.25 334.027344 170.644531 334.265625 173.042969 C 334.503906 175.445312 334.679688 177.851562 334.796875 180.265625 C 334.917969 182.675781 334.976562 185.085938 334.976562 187.5 Z M 334.976562 187.5 " fill-opacity="1" fill-rule="nonzero"/><path fill="#ffc86d" d="M 303.4375 187.5 C 303.4375 189.398438 303.390625 191.292969 303.300781 193.1875 C 303.207031 195.085938 303.066406 196.976562 302.878906 198.863281 C 302.695312 200.753906 302.460938 202.636719 302.183594 204.511719 C 301.90625 206.386719 301.582031 208.257812 301.210938 210.117188 C 300.839844 211.980469 300.425781 213.832031 299.964844 215.671875 C 299.503906 217.511719 298.996094 219.339844 298.445312 221.15625 C 297.894531 222.972656 297.300781 224.773438 296.660156 226.558594 C 296.023438 228.34375 295.339844 230.113281 294.613281 231.867188 C 293.886719 233.621094 293.117188 235.355469 292.308594 237.070312 C 291.496094 238.785156 290.644531 240.480469 289.75 242.152344 C 288.855469 243.828125 287.917969 245.476562 286.945312 247.105469 C 285.96875 248.730469 284.953125 250.335938 283.898438 251.914062 C 282.84375 253.488281 281.753906 255.039062 280.621094 256.566406 C 279.492188 258.089844 278.324219 259.585938 277.121094 261.050781 C 275.917969 262.519531 274.679688 263.953125 273.40625 265.359375 C 272.132812 266.765625 270.824219 268.140625 269.480469 269.480469 C 268.140625 270.824219 266.765625 272.132812 265.359375 273.40625 C 263.953125 274.679688 262.519531 275.917969 261.050781 277.121094 C 259.585938 278.324219 258.089844 279.492188 256.566406 280.625 C 255.039062 281.753906 253.488281 282.84375 251.914062 283.898438 C 250.335938 284.953125 248.730469 285.96875 247.105469 286.945312 C 245.476562 287.917969 243.828125 288.855469 242.152344 289.75 C 240.480469 290.644531 238.785156 291.496094 237.070312 292.308594 C 235.355469 293.117188 233.621094 293.886719 231.867188 294.613281 C 230.113281 295.339844 228.34375 296.023438 226.558594 296.660156 C 224.773438 297.300781 222.972656 297.894531 221.15625 298.445312 C 219.339844 298.996094 217.511719 299.503906 215.671875 299.964844 C 213.832031 300.425781 211.980469 300.839844 210.117188 301.210938 C 208.257812 301.582031 206.386719 301.90625 204.511719 302.183594 C 202.636719 302.460938 200.753906 302.695312 198.863281 302.878906 C 196.976562 303.066406 195.085938 303.207031 193.1875 303.300781 C 191.292969 303.390625 189.398438 303.4375 187.5 303.4375 C 185.601562 303.4375 183.707031 303.390625 181.8125 303.300781 C 179.914062 303.207031 178.023438 303.066406 176.136719 302.878906 C 174.246094 302.695312 172.363281 302.460938 170.488281 302.183594 C 168.609375 301.90625 166.742188 301.582031 164.882812 301.210938 C 163.019531 300.839844 161.167969 300.425781 159.328125 299.964844 C 157.488281 299.503906 155.660156 298.996094 153.84375 298.445312 C 152.027344 297.894531 150.226562 297.300781 148.441406 296.660156 C 146.65625 296.023438 144.886719 295.339844 143.132812 294.613281 C 141.378906 293.886719 139.644531 293.117188 137.929688 292.308594 C 136.214844 291.496094 134.519531 290.644531 132.847656 289.75 C 131.171875 288.855469 129.523438 287.917969 127.894531 286.945312 C 126.269531 285.96875 124.664062 284.953125 123.085938 283.898438 C 121.511719 282.84375 119.960938 281.753906 118.433594 280.621094 C 116.910156 279.492188 115.414062 278.324219 113.949219 277.121094 C 112.480469 275.917969 111.046875 274.679688 109.640625 273.40625 C 108.234375 272.132812 106.859375 270.824219 105.519531 269.480469 C 104.175781 268.140625 102.867188 266.765625 101.59375 265.359375 C 100.320312 263.953125 99.082031 262.519531 97.878906 261.050781 C 96.675781 259.585938 95.507812 258.089844 94.375 256.566406 C 93.246094 255.039062 92.15625 253.488281 91.101562 251.914062 C 90.046875 250.335938 89.03125 248.730469 88.054688 247.105469 C 87.082031 245.476562 86.144531 243.828125 85.25 242.152344 C 84.355469 240.480469 83.503906 238.785156 82.691406 237.070312 C 81.882812 235.355469 81.113281 233.621094 80.386719 231.867188 C 79.660156 230.113281 78.976562 228.34375 78.339844 226.558594 C 77.699219 224.773438 77.105469 222.972656 76.554688 221.15625 C 76.003906 219.339844 75.496094 217.511719 75.035156 215.671875 C 74.574219 213.832031 74.160156 211.980469 73.789062 210.117188 C 73.417969 208.257812 73.09375 206.386719 72.816406 204.511719 C 72.539062 202.636719 72.304688 200.753906 72.121094 198.863281 C 71.933594 196.976562 71.792969 195.085938 71.699219 193.1875 C 71.609375 191.292969 71.5625 189.398438 71.5625 187.5 C 71.5625 185.601562 71.609375 183.707031 71.699219 181.8125 C 71.792969 179.914062 71.933594 178.023438 72.121094 176.136719 C 72.304688 174.246094 72.539062 172.363281 72.816406 170.488281 C 73.09375 168.609375 73.417969 166.742188 73.789062 164.882812 C 74.160156 163.019531 74.574219 161.167969 75.035156 159.328125 C 75.496094 157.488281 76.003906 155.660156 76.554688 153.84375 C 77.105469 152.027344 77.699219 150.226562 78.339844 148.441406 C 78.976562 146.65625 79.660156 144.886719 80.386719 143.132812 C 81.113281 141.378906 81.882812 139.644531 82.691406 137.929688 C 83.503906 136.214844 84.355469 134.519531 85.25 132.847656 C 86.144531 131.171875 87.082031 129.523438 88.054688 127.894531 C 89.03125 126.269531 90.046875 124.664062 91.101562 123.085938 C 92.15625 121.511719 93.246094 119.960938 94.375 118.433594 C 95.507812 116.910156 96.675781 115.414062 97.878906 113.949219 C 99.082031 112.480469 100.320312 111.046875 101.59375 109.640625 C 102.867188 108.234375 104.175781 106.859375 105.519531 105.519531 C 106.859375 104.175781 108.234375 102.867188 109.640625 101.59375 C 111.046875 100.320312 112.480469 99.082031 113.949219 97.878906 C 115.414062 96.675781 116.910156 95.507812 118.433594 94.375 C 119.960938 93.246094 121.511719 92.15625 123.085938 91.101562 C 124.664062 90.046875 126.269531 89.03125 127.894531 88.054688 C 129.523438 87.082031 131.171875 86.144531 132.847656 85.25 C 134.519531 84.355469 136.214844 83.503906 137.929688 82.691406 C 139.644531 81.882812 141.378906 81.113281 143.132812 80.386719 C 144.886719 79.660156 146.65625 78.976562 148.441406 78.339844 C 150.226562 77.699219 152.027344 77.105469 153.84375 76.554688 C 155.660156 76.003906 157.488281 75.496094 159.328125 75.035156 C 161.167969 74.574219 163.019531 74.160156 164.882812 73.789062 C 166.742188 73.417969 168.609375 73.09375 170.488281 72.816406 C 172.363281 72.539062 174.246094 72.304688 176.136719 72.121094 C 178.023438 71.933594 179.914062 71.792969 181.8125 71.699219 C 183.707031 71.609375 185.601562 71.5625 187.5 71.5625 C 189.398438 71.5625 191.292969 71.609375 193.1875 71.699219 C 195.085938 71.792969 196.976562 71.933594 198.863281 72.121094 C 200.753906 72.304688 202.636719 72.539062 204.511719 72.816406 C 206.386719 73.09375 208.257812 73.417969 210.117188 73.789062 C 211.980469 74.160156 213.832031 74.574219 215.671875 75.035156 C 217.511719 75.496094 219.339844 76.003906 221.15625 76.554688 C 222.972656 77.105469 224.773438 77.699219 226.558594 78.339844 C 228.34375 78.976562 230.113281 79.660156 231.867188 80.386719 C 233.621094 81.113281 235.355469 81.882812 237.070312 82.691406 C 238.785156 83.503906 240.480469 84.355469 242.152344 85.25 C 243.828125 86.144531 245.476562 87.082031 247.105469 88.054688 C 248.730469 89.03125 250.335938 90.046875 251.914062 91.101562 C 253.488281 92.15625 255.039062 93.246094 256.566406 94.375 C 258.089844 95.507812 259.585938 96.675781 261.050781 97.878906 C 262.519531 99.082031 263.953125 100.320312 265.359375 101.59375 C 266.765625 102.867188 268.140625 104.175781 269.480469 105.519531 C 270.824219 106.859375 272.132812 108.234375 273.40625 109.640625 C 274.679688 111.046875 275.917969 112.480469 277.121094 113.949219 C 278.324219 115.414062 279.492188 116.910156 280.625 118.433594 C 281.753906 119.960938 282.84375 121.511719 283.898438 123.085938 C 284.953125 124.664062 285.96875 126.269531 286.945312 127.894531 C 287.917969 129.523438 288.855469 131.171875 289.75 132.847656 C 290.644531 134.519531 291.496094 136.214844 292.308594 137.929688 C 293.117188 139.644531 293.886719 141.378906 294.613281 143.132812 C 295.339844 144.886719 296.023438 146.65625 296.660156 148.441406 C 297.300781 150.226562 297.894531 152.027344 298.445312 153.84375 C 298.996094 155.660156 299.503906 157.488281 299.964844 159.328125 C 300.425781 161.167969 300.839844 163.019531 301.210938 164.882812 C 301.582031 166.742188 301.90625 168.609375 302.183594 170.488281 C 302.460938 172.363281 302.695312 174.246094 302.878906 176.136719 C 303.066406 178.023438 303.207031 179.914062 303.300781 181.8125 C 303.390625 183.707031 303.4375 185.601562 303.4375 187.5 Z M 303.4375 187.5 " fill-opacity="1" fill-rule="nonzero"/><path fill="#ffffff" d="M 181.683594 149.085938 L 181.609375 109.574219 C 181.609375 107.378906 179.816406 105.546875 177.585938 105.546875 L 176.855469 105.546875 C 174.660156 105.546875 172.828125 107.339844 172.828125 109.574219 L 172.828125 143.925781 L 163.28125 143.925781 L 163.28125 109.9375 C 163.28125 107.523438 161.304688 105.546875 158.890625 105.546875 C 156.476562 105.546875 154.5 107.523438 154.5 109.9375 L 154.5 143.925781 L 144.953125 143.925781 L 144.953125 109.574219 C 144.953125 107.378906 143.160156 105.546875 140.925781 105.546875 L 140.195312 105.546875 C 138 105.546875 136.171875 107.339844 136.171875 109.574219 L 136.171875 149.085938 C 136.171875 149.195312 136.171875 149.339844 136.207031 149.488281 C 136.207031 149.597656 136.171875 149.742188 136.171875 149.890625 L 136.171875 152.304688 C 136.171875 161.195312 142.976562 168.546875 151.644531 169.425781 L 151.644531 262.28125 C 151.644531 266.195312 154.828125 269.414062 158.78125 269.414062 C 162.695312 269.414062 165.914062 266.230469 165.914062 262.28125 L 165.914062 169.464844 C 174.695312 168.695312 181.644531 161.304688 181.644531 152.339844 L 181.644531 149.925781 C 181.644531 149.816406 181.644531 149.671875 181.609375 149.523438 C 181.644531 149.378906 181.683594 149.269531 181.683594 149.085938 Z M 181.683594 149.085938 " fill-opacity="1" fill-rule="nonzero"/><path fill="#ffffff" d="M 239.816406 140.707031 C 239.816406 120.585938 229.425781 104.269531 216.585938 104.269531 C 203.742188 104.269531 193.355469 120.621094 193.355469 140.707031 C 193.355469 156.878906 200.085938 170.597656 209.414062 175.355469 L 209.414062 263.453125 C 209.414062 267.4375 212.671875 270.695312 216.660156 270.695312 C 220.644531 270.695312 223.902344 267.4375 223.902344 263.453125 L 223.902344 175.316406 C 233.160156 170.523438 239.816406 156.839844 239.816406 140.707031 Z M 239.816406 140.707031 " fill-opacity="1" fill-rule="nonzero"/><path fill="#ffa40b" d="M 188.085938 71.5625 C 183.878906 71.5625 179.742188 71.78125 175.644531 72.21875 C 233.816406 78.4375 279.144531 127.683594 279.144531 187.5 C 279.144531 247.316406 233.816406 296.5625 175.644531 302.78125 C 179.742188 303.21875 183.878906 303.4375 188.085938 303.4375 C 252.109375 303.4375 304.023438 251.523438 304.023438 187.5 C 304.023438 123.476562 252.109375 71.5625 188.085938 71.5625 Z M 188.085938 71.5625 " fill-opacity="1" fill-rule="nonzero"/><g clip-path="url(#ddbf25cd67)"><path fill="#000000" d="M 187.5 337.5 C 167.269531 337.5 147.621094 333.546875 129.109375 325.71875 C 111.257812 318.144531 95.195312 307.355469 81.4375 293.5625 C 67.644531 279.769531 56.855469 263.742188 49.28125 245.890625 C 41.453125 227.378906 37.5 207.730469 37.5 187.5 C 37.5 167.269531 41.453125 147.621094 49.28125 129.109375 C 56.855469 111.257812 67.644531 95.195312 81.4375 81.4375 C 95.230469 67.644531 111.257812 56.855469 129.109375 49.28125 C 147.621094 41.453125 167.269531 37.5 187.5 37.5 C 207.730469 37.5 227.378906 41.453125 245.890625 49.28125 C 263.742188 56.855469 279.804688 67.644531 293.5625 81.4375 C 307.355469 95.230469 318.144531 111.257812 325.71875 129.109375 C 333.546875 147.621094 337.5 167.269531 337.5 187.5 C 337.5 207.730469 333.546875 227.378906 325.71875 245.890625 C 318.144531 263.742188 307.355469 279.804688 293.5625 293.5625 C 279.769531 307.316406 263.742188 318.144531 245.890625 325.71875 C 227.378906 333.546875 207.730469 337.5 187.5 337.5 Z M 187.5 44.816406 C 168.21875 44.816406 149.5625 48.585938 131.964844 56.011719 C 114.988281 63.183594 99.730469 73.5 86.597656 86.597656 C 73.5 99.695312 63.21875 114.953125 56.011719 131.964844 C 48.585938 149.5625 44.816406 168.21875 44.816406 187.5 C 44.816406 206.78125 48.585938 225.4375 56.011719 243.035156 C 63.183594 260.011719 73.5 275.269531 86.597656 288.402344 C 99.695312 301.5 114.953125 311.78125 131.964844 318.988281 C 149.5625 326.414062 168.21875 330.183594 187.5 330.183594 C 206.78125 330.183594 225.4375 326.414062 243.035156 318.988281 C 260.011719 311.816406 275.269531 301.5 288.402344 288.402344 C 301.535156 275.304688 311.78125 260.046875 318.988281 243.035156 C 326.414062 225.4375 330.183594 206.78125 330.183594 187.5 C 330.183594 168.21875 326.414062 149.5625 318.988281 131.964844 C 311.816406 114.988281 301.5 99.730469 288.402344 86.597656 C 275.304688 73.5 260.046875 63.21875 243.035156 56.011719 C 225.4375 48.585938 206.78125 44.816406 187.5 44.816406 Z M 187.5 44.816406 " fill-opacity="1" fill-rule="nonzero"/></g><path fill="#000000" d="M 187.5 306.328125 C 155.742188 306.328125 125.925781 293.964844 103.464844 271.535156 C 81.035156 249.074219 68.671875 219.257812 68.671875 187.5 C 68.671875 155.742188 81.035156 125.925781 103.464844 103.464844 C 125.925781 81 155.742188 68.671875 187.5 68.671875 C 219.257812 68.671875 249.074219 81.035156 271.535156 103.464844 C 294 125.925781 306.328125 155.742188 306.328125 187.5 C 306.328125 219.257812 293.964844 249.074219 271.535156 271.535156 C 249.074219 293.964844 219.257812 306.328125 187.5 306.328125 Z M 187.5 75.988281 C 157.71875 75.988281 129.695312 87.585938 108.621094 108.660156 C 87.585938 129.695312 75.988281 157.71875 75.988281 187.5 C 75.988281 217.28125 87.585938 245.304688 108.660156 266.378906 C 129.730469 287.453125 157.71875 299.046875 187.535156 299.046875 C 217.316406 299.046875 245.339844 287.453125 266.414062 266.378906 C 287.488281 245.304688 299.085938 217.316406 299.085938 187.5 C 299.085938 157.71875 287.488281 129.695312 266.414062 108.621094 C 245.304688 87.585938 217.28125 75.988281 187.5 75.988281 Z M 187.5 75.988281 " fill-opacity="1" fill-rule="nonzero"/><path fill="#000000" d="M 158.816406 274.355469 C 152.816406 274.355469 147.914062 269.453125 147.914062 263.453125 L 147.914062 172.207031 C 144.035156 171.183594 140.488281 169.023438 137.707031 165.988281 C 134.160156 162.074219 132.183594 157.023438 132.183594 151.792969 L 132.183594 149.339844 C 132.183594 149.195312 132.183594 149.085938 132.183594 148.976562 C 132.183594 148.792969 132.183594 148.609375 132.183594 148.5 L 132.183594 108.367188 C 132.183594 104.085938 135.660156 100.644531 139.902344 100.644531 L 140.632812 100.644531 C 144.914062 100.644531 148.355469 104.121094 148.355469 108.367188 L 148.355469 139.574219 L 150.730469 139.574219 L 150.730469 108.730469 C 150.730469 104.269531 154.355469 100.609375 158.855469 100.609375 C 163.316406 100.609375 166.976562 104.230469 166.976562 108.730469 L 166.976562 139.574219 L 169.355469 139.574219 L 169.355469 108.367188 C 169.355469 104.085938 172.828125 100.644531 177.074219 100.644531 L 177.804688 100.644531 C 182.085938 100.644531 185.523438 104.121094 185.523438 108.367188 L 185.597656 148.464844 C 185.597656 148.609375 185.597656 148.71875 185.597656 148.828125 C 185.597656 149.011719 185.597656 149.195312 185.597656 149.304688 L 185.597656 151.757812 C 185.597656 161.488281 178.828125 169.902344 169.644531 172.242188 L 169.644531 263.453125 C 169.71875 269.453125 164.816406 274.355469 158.816406 274.355469 Z M 139.535156 149.523438 L 139.535156 151.792969 C 139.535156 158.78125 144.988281 164.816406 151.976562 165.511719 C 153.839844 165.695312 155.269531 167.269531 155.269531 169.132812 L 155.269531 263.453125 C 155.269531 265.425781 156.878906 267.035156 158.855469 267.035156 C 160.828125 267.035156 162.4375 265.425781 162.4375 263.453125 L 162.4375 169.171875 C 162.4375 167.269531 163.902344 165.695312 165.769531 165.511719 C 172.828125 164.890625 178.390625 158.855469 178.390625 151.757812 L 178.390625 149.453125 C 178.355469 149.269531 178.355469 149.085938 178.355469 148.902344 C 178.355469 148.644531 178.390625 148.464844 178.390625 148.316406 L 178.316406 108.402344 C 178.316406 108.183594 178.132812 107.964844 177.914062 107.964844 L 177.183594 107.964844 C 176.964844 107.964844 176.78125 108.144531 176.78125 108.367188 L 176.78125 143.230469 C 176.78125 145.242188 175.132812 146.890625 173.121094 146.890625 L 163.355469 146.890625 C 161.339844 146.890625 159.695312 145.242188 159.695312 143.230469 L 159.695312 108.730469 C 159.695312 108.292969 159.328125 107.925781 158.890625 107.925781 C 158.453125 107.925781 158.085938 108.292969 158.085938 108.730469 L 158.085938 143.230469 C 158.085938 145.242188 156.4375 146.890625 154.425781 146.890625 L 144.730469 146.890625 C 142.71875 146.890625 141.074219 145.242188 141.074219 143.230469 L 141.074219 108.367188 C 141.074219 108.144531 140.890625 107.964844 140.671875 107.964844 L 139.9375 107.964844 C 139.71875 107.964844 139.535156 108.144531 139.535156 108.367188 L 139.535156 148.355469 C 139.574219 148.535156 139.574219 148.71875 139.574219 148.902344 C 139.574219 149.160156 139.535156 149.378906 139.535156 149.523438 Z M 178.425781 149.816406 Z M 139.464844 148.023438 Z M 139.464844 148.023438 " fill-opacity="1" fill-rule="nonzero"/><path fill="#000000" d="M 216.621094 274.355469 C 210.621094 274.355469 205.71875 269.453125 205.71875 263.453125 L 205.71875 177.476562 C 196.023438 171.21875 189.660156 156.804688 189.660156 140.742188 C 189.660156 130.316406 192.292969 120.476562 197.046875 113.011719 C 202.132812 105.035156 209.046875 100.644531 216.585938 100.644531 C 224.121094 100.644531 231.035156 105.035156 236.121094 113.011719 C 240.878906 120.476562 243.511719 130.316406 243.511719 140.742188 C 243.511719 156.769531 237.183594 171.144531 227.5625 177.4375 L 227.5625 263.488281 C 227.523438 269.453125 222.660156 274.355469 216.621094 274.355469 Z M 216.585938 107.964844 C 205.976562 107.964844 197.011719 122.964844 197.011719 140.742188 C 197.011719 155.011719 202.792969 167.925781 211.0625 172.132812 C 212.304688 172.757812 213.074219 174 213.074219 175.390625 L 213.074219 263.488281 C 213.074219 265.464844 214.683594 267.074219 216.660156 267.074219 C 218.632812 267.074219 220.242188 265.464844 220.242188 263.488281 L 220.242188 175.316406 C 220.242188 173.964844 221.011719 172.683594 222.21875 172.0625 C 230.453125 167.816406 236.195312 154.902344 236.195312 140.707031 C 236.160156 122.964844 227.195312 107.964844 216.585938 107.964844 Z M 216.585938 107.964844 " fill-opacity="1" fill-rule="nonzero"/><path fill="#000000" d="M 220.425781 113.707031 C 219.804688 113.269531 219.035156 113.085938 218.269531 113.230469 C 217.5 113.378906 216.804688 113.816406 216.367188 114.4375 C 215.925781 115.0625 215.742188 115.828125 215.890625 116.597656 C 216.035156 117.367188 216.476562 118.0625 217.132812 118.5 C 220.9375 121.097656 225.511719 127.355469 225.660156 142.5 C 225.660156 143.269531 225.953125 144 226.5 144.546875 C 227.046875 145.097656 227.742188 145.390625 228.546875 145.390625 C 228.585938 145.390625 228.585938 145.390625 228.621094 145.390625 L 228.730469 145.390625 C 230.269531 145.316406 231.476562 144.074219 231.546875 142.464844 C 231.367188 128.488281 227.523438 118.535156 220.425781 113.707031 Z M 220.425781 113.707031 " fill-opacity="1" fill-rule="nonzero"/><path fill="#000000" d="M 231.660156 150.511719 C 231.660156 150.875 231.589844 151.226562 231.449219 151.5625 C 231.308594 151.898438 231.113281 152.195312 230.855469 152.453125 C 230.597656 152.710938 230.300781 152.90625 229.964844 153.046875 C 229.628906 153.1875 229.277344 153.257812 228.914062 153.257812 C 228.550781 153.257812 228.199219 153.1875 227.863281 153.046875 C 227.527344 152.90625 227.230469 152.710938 226.972656 152.453125 C 226.71875 152.195312 226.519531 151.898438 226.378906 151.5625 C 226.242188 151.226562 226.171875 150.875 226.171875 150.511719 C 226.171875 150.148438 226.242188 149.796875 226.378906 149.460938 C 226.519531 149.125 226.71875 148.828125 226.972656 148.570312 C 227.230469 148.316406 227.527344 148.117188 227.863281 147.976562 C 228.199219 147.835938 228.550781 147.769531 228.914062 147.769531 C 229.277344 147.769531 229.628906 147.835938 229.964844 147.976562 C 230.300781 148.117188 230.597656 148.316406 230.855469 148.570312 C 231.113281 148.828125 231.308594 149.125 231.449219 149.460938 C 231.589844 149.796875 231.660156 150.148438 231.660156 150.511719 Z M 231.660156 150.511719 " fill-opacity="1" fill-rule="nonzero"/><path fill="#000000" d="M 228.914062 153.988281 C 228.035156 153.988281 227.230469 153.660156 226.574219 153.074219 C 225.878906 152.453125 225.476562 151.574219 225.4375 150.660156 C 225.402344 149.742188 225.730469 148.828125 226.355469 148.132812 C 226.976562 147.4375 227.855469 147.035156 228.769531 147 C 229.683594 146.964844 230.597656 147.292969 231.292969 147.914062 C 231.988281 148.535156 232.390625 149.414062 232.425781 150.328125 C 232.464844 151.242188 232.132812 152.160156 231.511719 152.855469 C 230.890625 153.546875 230.011719 153.953125 229.097656 153.988281 C 229.023438 153.988281 228.953125 153.988281 228.914062 153.988281 Z M 228.914062 148.464844 C 228.878906 148.464844 228.839844 148.464844 228.804688 148.464844 C 228.257812 148.5 227.78125 148.71875 227.414062 149.121094 C 227.046875 149.523438 226.867188 150.035156 226.902344 150.585938 C 226.9375 151.132812 227.160156 151.609375 227.5625 151.976562 C 227.964844 152.339844 228.476562 152.523438 229.023438 152.488281 C 229.574219 152.453125 230.046875 152.230469 230.414062 151.828125 C 230.78125 151.425781 230.964844 150.914062 230.925781 150.367188 C 230.890625 149.816406 230.671875 149.339844 230.269531 148.976562 C 229.902344 148.683594 229.425781 148.464844 228.914062 148.464844 Z M 228.914062 148.464844 " fill-opacity="1" fill-rule="nonzero"/></svg>