<svg xmlns="http://www.w3.org/2000/svg" xmlns:xlink="http://www.w3.org/1999/xlink" width="500" zoomAndPan="magnify" viewBox="0 0 375 374.999991" height="500" preserveAspectRatio="xMidYMid meet" version="1.0"><defs><clipPath id="6c7d1e2487"><path d="M 64.3125 94 L 311 94 L 311 337.5 L 64.3125 337.5 Z M 64.3125 94 " clip-rule="nonzero"/></clipPath><clipPath id="bda8076491"><path d="M 136 37.5 L 239 37.5 L 239 148 L 136 148 Z M 136 37.5 " clip-rule="nonzero"/></clipPath></defs><rect x="-37.5" width="450" fill="#ffffff" y="-37.499999" height="449.999989" fill-opacity="1"/><rect x="-37.5" width="450" fill="#ffffff" y="-37.499999" height="449.999989" fill-opacity="1"/><g clip-path="url(#6c7d1e2487)"><path fill="#efc7a4" d="M 65.433594 166.089844 L 93.503906 102.082031 C 95.546875 97.429688 99.890625 94.59375 104.972656 94.59375 L 270.402344 94.59375 C 275.484375 94.59375 279.832031 97.429688 281.871094 102.082031 L 309.941406 166.089844 C 310.667969 167.746094 310.992188 169.292969 310.992188 171.101562 L 310.992188 325 C 310.992188 331.882812 305.371094 337.5 298.472656 337.5 L 76.902344 337.5 C 70.007812 337.5 64.382812 331.886719 64.382812 325 L 64.382812 171.101562 C 64.382812 169.292969 64.707031 167.746094 65.433594 166.089844 Z M 128.984375 118.257812 C 122.089844 118.257812 116.464844 123.871094 116.464844 130.757812 L 116.464844 156.941406 C 116.464844 163.828125 122.089844 169.441406 128.984375 169.441406 L 246.390625 169.441406 C 253.285156 169.441406 258.910156 163.828125 258.910156 156.941406 L 258.910156 130.757812 C 258.910156 123.871094 253.285156 118.257812 246.390625 118.257812 Z M 128.984375 118.257812 " fill-opacity="1" fill-rule="evenodd"/></g><g clip-path="url(#bda8076491)"><path fill="#d5a889" d="M 160.152344 37.5 L 215.222656 37.5 C 216.945312 37.5 218.351562 38.902344 218.351562 40.625 L 218.351562 56.667969 C 218.351562 57.4375 218.59375 58.101562 219.09375 58.6875 L 235.828125 78.410156 C 237.820312 80.761719 238.792969 83.410156 238.792969 86.488281 C 238.792969 100.261719 238.792969 118.023438 238.792969 130.757812 C 238.792969 136.367188 234.195312 140.960938 228.574219 140.960938 C 222.949219 140.960938 218.351562 136.371094 218.351562 130.757812 L 218.351562 137.007812 C 218.351562 142.617188 213.753906 147.210938 208.128906 147.210938 C 202.507812 147.210938 197.910156 142.621094 197.910156 137.007812 C 197.910156 142.617188 193.308594 147.210938 187.6875 147.210938 C 182.066406 147.210938 177.46875 142.621094 177.46875 137.007812 C 177.46875 142.617188 172.867188 147.210938 167.246094 147.210938 C 161.625 147.210938 157.023438 142.621094 157.023438 137.007812 L 157.023438 118.257812 C 157.023438 123.867188 152.425781 128.460938 146.804688 128.460938 C 141.183594 128.460938 136.582031 123.871094 136.582031 118.257812 L 136.582031 86.488281 C 136.582031 83.410156 137.554688 80.761719 139.550781 78.410156 L 156.28125 58.691406 C 156.78125 58.101562 157.023438 57.441406 157.023438 56.671875 L 157.023438 40.625 C 157.023438 38.902344 158.429688 37.5 160.152344 37.5 Z M 160.152344 37.5 " fill-opacity="1" fill-rule="evenodd"/></g><path fill="#937661" d="M 218.351562 130.757812 L 218.351562 137.007812 C 218.351562 142.125 214.523438 146.394531 209.585938 147.109375 L 209.585938 101.449219 C 209.585938 99.035156 211.550781 97.074219 213.96875 97.074219 C 216.390625 97.074219 218.351562 99.035156 218.351562 101.449219 Z M 197.871094 137.863281 C 197.472656 142.605469 193.785156 146.457031 189.109375 147.113281 L 189.109375 101.449219 C 189.109375 99.035156 191.070312 97.074219 193.492188 97.074219 C 195.910156 97.074219 197.871094 99.035156 197.871094 101.449219 Z M 177.449219 137.59375 C 177.167969 142.453125 173.441406 146.433594 168.683594 147.109375 L 168.683594 101.449219 C 168.683594 99.035156 170.648438 97.074219 173.066406 97.074219 C 175.488281 97.074219 177.449219 99.035156 177.449219 101.449219 Z M 157.023438 118.257812 C 157.023438 123.375 153.199219 127.644531 148.261719 128.355469 L 148.261719 101.449219 C 148.261719 99.035156 150.222656 97.074219 152.640625 97.074219 C 155.0625 97.074219 157.023438 99.035156 157.023438 101.449219 Z M 157.023438 118.257812 " fill-opacity="1" fill-rule="evenodd"/><path fill="#d94452" d="M 148.652344 260.574219 L 187.796875 253.320312 L 226.722656 260.574219 C 234.546875 260.574219 240.949219 266.96875 240.949219 274.78125 C 240.949219 282.59375 234.546875 288.988281 226.722656 288.988281 L 187.941406 298.761719 L 148.652344 288.988281 C 140.828125 288.988281 134.425781 282.59375 134.425781 274.78125 C 134.425781 266.96875 140.828125 260.574219 148.652344 260.574219 Z M 148.652344 260.574219 " fill-opacity="1" fill-rule="evenodd"/><path fill="#eb5463" d="M 148.652344 260.574219 L 174.28125 255.824219 L 201.238281 255.824219 L 226.722656 260.574219 C 229.421875 260.574219 231.953125 261.335938 234.109375 262.65625 C 235.433594 264.808594 236.195312 267.335938 236.195312 270.03125 C 236.195312 277.847656 229.792969 284.238281 221.964844 284.238281 L 143.898438 284.238281 C 141.199219 284.238281 138.667969 283.476562 136.507812 282.160156 C 135.1875 280.003906 134.425781 277.476562 134.425781 274.78125 C 134.425781 266.96875 140.828125 260.574219 148.652344 260.574219 Z M 148.652344 260.574219 " fill-opacity="1" fill-rule="evenodd"/><path fill="#fdcd56" d="M 169.574219 260.574219 L 187.796875 253.320312 L 205.804688 260.574219 L 191.050781 275.304688 C 189.199219 277.152344 186.175781 277.152344 184.324219 275.304688 Z M 169.574219 260.574219 " fill-opacity="1" fill-rule="evenodd"/><path fill="#d5a889" d="M 139.183594 288.988281 L 236.191406 288.988281 C 238.8125 288.988281 240.949219 291.121094 240.949219 293.738281 L 240.949219 305.53125 C 240.949219 312.070312 235.609375 317.402344 229.0625 317.402344 L 146.3125 317.402344 C 139.765625 317.402344 134.425781 312.070312 134.425781 305.53125 L 134.425781 293.738281 C 134.425781 291.121094 136.5625 288.988281 139.183594 288.988281 Z M 139.183594 288.988281 " fill-opacity="1" fill-rule="evenodd"/><path fill="#d94452" d="M 148.652344 232.160156 L 187.148438 226.824219 L 226.722656 232.160156 C 234.546875 232.160156 240.949219 238.554688 240.949219 246.367188 C 240.949219 254.183594 234.546875 260.574219 226.722656 260.574219 L 148.652344 260.574219 C 140.828125 260.574219 134.425781 254.183594 134.425781 246.367188 C 134.425781 238.554688 140.828125 232.160156 148.652344 232.160156 Z M 148.652344 232.160156 " fill-opacity="1" fill-rule="evenodd"/><path fill="#eb5463" d="M 148.652344 232.160156 L 182.90625 227.414062 L 191.511719 227.414062 L 226.722656 232.160156 C 229.421875 232.160156 231.953125 232.921875 234.109375 234.242188 C 235.433594 236.394531 236.195312 238.921875 236.195312 241.621094 C 236.195312 249.433594 229.792969 255.828125 221.964844 255.828125 L 143.898438 255.828125 C 141.199219 255.828125 138.667969 255.066406 136.507812 253.746094 C 135.1875 251.59375 134.425781 249.066406 134.425781 246.367188 C 134.425781 238.554688 140.828125 232.160156 148.652344 232.160156 Z M 148.652344 232.160156 " fill-opacity="1" fill-rule="evenodd"/><path fill="#fdcd56" d="M 148.652344 232.160156 L 166.964844 222.445312 L 184.882812 232.160156 L 170.132812 246.890625 C 168.28125 248.738281 165.257812 248.738281 163.40625 246.890625 Z M 148.652344 232.160156 " fill-opacity="1" fill-rule="evenodd"/><path fill="#d5a889" d="M 162.882812 189.539062 L 212.492188 189.539062 C 228.144531 189.539062 240.949219 202.328125 240.949219 217.953125 L 240.949219 227.410156 C 240.949219 230.027344 238.8125 232.160156 236.195312 232.160156 L 139.183594 232.160156 C 136.5625 232.160156 134.425781 230.027344 134.425781 227.410156 L 134.425781 217.953125 C 134.425781 202.328125 147.230469 189.539062 162.882812 189.539062 Z M 162.882812 189.539062 " fill-opacity="1" fill-rule="evenodd"/><path fill="#efc7a4" d="M 159.796875 214.011719 C 161.898438 214.011719 163.601562 215.710938 163.601562 217.808594 C 163.601562 219.90625 161.898438 221.609375 159.796875 221.609375 C 157.695312 221.609375 155.992188 219.90625 155.992188 217.808594 C 155.992188 215.710938 157.695312 214.011719 159.796875 214.011719 Z M 206.28125 200.09375 C 208.382812 200.09375 210.085938 201.796875 210.085938 203.894531 C 210.085938 205.992188 208.382812 207.691406 206.28125 207.691406 C 204.179688 207.691406 202.476562 205.992188 202.476562 203.894531 C 202.476562 201.796875 204.179688 200.09375 206.28125 200.09375 Z M 169.09375 200.09375 C 171.195312 200.09375 172.898438 201.796875 172.898438 203.894531 C 172.898438 205.992188 171.195312 207.691406 169.09375 207.691406 C 166.992188 207.691406 165.289062 205.992188 165.289062 203.894531 C 165.289062 201.796875 166.992188 200.09375 169.09375 200.09375 Z M 187.6875 200.09375 C 189.789062 200.09375 191.492188 201.796875 191.492188 203.894531 C 191.492188 205.992188 189.789062 207.691406 187.6875 207.691406 C 185.585938 207.691406 183.882812 205.992188 183.882812 203.894531 C 183.882812 201.796875 185.585938 200.09375 187.6875 200.09375 Z M 215.578125 214.011719 C 217.679688 214.011719 219.382812 215.710938 219.382812 217.808594 C 219.382812 219.90625 217.679688 221.609375 215.578125 221.609375 C 213.476562 221.609375 211.773438 219.90625 211.773438 217.808594 C 211.773438 215.710938 213.476562 214.011719 215.578125 214.011719 Z M 196.984375 214.011719 C 199.085938 214.011719 200.789062 215.710938 200.789062 217.808594 C 200.789062 219.90625 199.085938 221.609375 196.984375 221.609375 C 194.882812 221.609375 193.179688 219.90625 193.179688 217.808594 C 193.179688 215.710938 194.882812 214.011719 196.984375 214.011719 Z M 178.390625 214.011719 C 180.492188 214.011719 182.195312 215.710938 182.195312 217.808594 C 182.195312 219.90625 180.492188 221.609375 178.390625 221.609375 C 176.289062 221.609375 174.585938 219.90625 174.585938 217.808594 C 174.585938 215.710938 176.289062 214.011719 178.390625 214.011719 Z M 178.390625 214.011719 " fill-opacity="1" fill-rule="evenodd"/></svg>